<mxfile host="app.diagrams.net" modified="2024-01-05T13:05:34.273Z" agent="Mozilla/5.0 (Windows NT 10.0; Win64; x64) AppleWebKit/537.36 (KHTML, like Gecko) Chrome/120.0.0.0 Safari/537.36" version="22.1.16" etag="HJLU3J_hCaqoVpTj3pzr" type="github">
  <diagram name="Страница — 1" id="Kj9b-6vJyjDlX2KVwcrJ">
    <mxGraphModel>
      <root>
        <mxCell id="0" />
        <mxCell id="1" parent="0" />
      </root>
    </mxGraphModel>
  </diagram>
</mxfile>
